# xmcd CD database file
#
# Track frame offsets:
#	150
#	13498
#	33639
#	53094
#	74985
#	94173
#	108583
#	125764
#	139312
#	148625
#	168313
#	184371
#	200800
#	224042
#	241545
#	258814
#	273862
#	287652
#	308202
#
# Disc length: 4316 seconds
#
# Revision: 1
# Processed by: cddbd v1.5.2PL0 Copyright (c) Steve Scherf et al.
# Submitted via: CDex 1.70beta2
#
DISCID=3810da13
DTITLE=Michael Connelly - The Brass Verdict Disc 1
DYEAR=2008
DGENRE=Audio Book
TTITLE0=The Brass Verdict Disc 1-01
TTITLE1=The Brass Verdict Disc 1-02
TTITLE2=The Brass Verdict Disc 1-03
TTITLE3=The Brass Verdict Disc 1-04
TTITLE4=The Brass Verdict Disc 1-05
TTITLE5=The Brass Verdict Disc 1-06
TTITLE6=The Brass Verdict Disc 1-07
TTITLE7=The Brass Verdict Disc 1-08
TTITLE8=The Brass Verdict Disc 1-09
TTITLE9=The Brass Verdict Disc 1-10
TTITLE10=The Brass Verdict Disc 1-11
TTITLE11=The Brass Verdict Disc 1-12
TTITLE12=The Brass Verdict Disc 1-13
TTITLE13=The Brass Verdict Disc 1-14
TTITLE14=The Brass Verdict Disc 1-15
TTITLE15=The Brass Verdict Disc 1-16
TTITLE16=The Brass Verdict Disc 1-17
TTITLE17=The Brass Verdict Disc 1-18
TTITLE18=The Brass Verdict Disc 1-19
EXTD=YEAR: 2008
EXTT0=
EXTT1=
EXTT2=
EXTT3=
EXTT4=
EXTT5=
EXTT6=
EXTT7=
EXTT8=
EXTT9=
EXTT10=
EXTT11=
EXTT12=
EXTT13=
EXTT14=
EXTT15=
EXTT16=
EXTT17=
EXTT18=
PLAYORDER=
